# xmcd
# 
# Track frame offsets:
#     150
#     12826
#     25439
#     39841
#     55685
#     67358
#     81612
#     92604
#     104655
#     120685
#     134516
#     147711
#     160017
#     174783
#     191050
#     202545
#     219159
#     235472
#     247988
#     260127
# 
# Disc length: 3659
# 
# Revision: 0
# Processed by: cddbd v1.5.2PL0 Copyright (c) Steve Scherf et al.
# Submitted via: BonkEnc v1.0.8
# 
DISCID=200e4914
DTITLE=Various Artist - 20 Best of Country
DYEAR=0
DGENRE=Country
TTITLE0=Exile - Give Me One More Chance
TTITLE1=Holly Dunn - You Really Had Me Going
TTITLE2=T.G. Sheppard - Do You Wanna Go To Heaven
TTITLE3=B.J. Thomas - Another Somebody Done Somebody Wrong Song
TTITLE4=Donna Fargo - The Happiest Girl in the U.S.A.
TTITLE5=T. Graham Brown - Hell and High Water
TTITLE6=Janie Fricke - Don't Worry About Me Baby
TTITLE7=Freddy Fender - Live - Before the Next Teardrop Falls
TTITLE8=Juice Newton - Hurt
TTITLE9=Moe Bandy - I Cheated Me Right Outta You
TTITLE10=Lynn Anderson - Rose Garden
TTITLE11=Johnny Paycheck - Take This Job and Shove It
TTITLE12=Jeanne Pruett - Satin Sheets
TTITLE13=Exile - She's a Miracle
TTITLE14=Holly Dunn - Are You Ever Gonna Love Me
TTITLE15=T.G. Sheppard - Last Cheater's Waltz
TTITLE16=Janie Fricke - It Ain't Easy Being Easy
TTITLE17=Freddy Fender - Live - Wasted Days and Wasted Nights
TTITLE18=Moe Bandy - Good Ole Boys
TTITLE19=Exile - Woke Up In Love
EXTD=
EXTT0=
EXTT1=
EXTT2=
EXTT3=
EXTT4=
EXTT5=
EXTT6=
EXTT7=
EXTT8=
EXTT9=
EXTT10=
EXTT11=
EXTT12=
EXTT13=
EXTT14=
EXTT15=
EXTT16=
EXTT17=
EXTT18=
EXTT19=
PLAYORDER=
